<svg width="48" height="48" viewBox="0 0 48 48" fill="none" xmlns="http://www.w3.org/2000/svg">
<g clip-path="url(#clip0_134_83)">
<path fill-rule="evenodd" clip-rule="evenodd" d="M2.89575 6.02983C2.89575 5.64323 3.20915 5.32983 3.59575 5.32983H27.5C27.8866 5.32983 28.2 5.64323 28.2 6.02983C28.2 6.41643 27.8866 6.72983 27.5 6.72983H4.29575V44.8358C4.29575 45.7618 5.00014 46.5368 5.94292 46.6421C9.60196 46.5111 12.5468 43.5398 12.5468 39.8209V37.6716C12.5468 37.285 12.8602 36.9716 13.2468 36.9716H37.1511V18C37.1511 17.6134 37.4645 17.3 37.8511 17.3C38.2377 17.3 38.5511 17.6134 38.5511 18V37.6716C38.5511 38.0582 38.2377 38.3716 37.8511 38.3716H13.9468V39.8209C13.9468 44.3257 10.3623 47.9126 5.93978 48.043C5.91171 48.0438 5.88361 48.0429 5.85565 48.0404C4.19703 47.8893 2.89575 46.5237 2.89575 44.8358V6.02983Z" fill="#444444"/>
<path fill-rule="evenodd" clip-rule="evenodd" d="M37.5678 37.0314H13.2468C12.8602 37.0314 12.5468 37.3448 12.5468 37.7314V39.8806C12.5468 43.6146 9.57814 46.5949 5.89856 46.7033C5.51614 46.7146 5.21362 47.0308 5.21925 47.4133C5.22489 47.7959 5.5366 48.103 5.91918 48.103H34.7532C39.3114 48.103 43.0192 44.3852 43.0192 39.8209V37.6717C43.0192 37.2851 42.7058 36.9717 42.3192 36.9717H37.8511C37.7503 36.9717 37.6544 36.993 37.5678 37.0314ZM38.1344 38.3717C38.0478 38.4101 37.9519 38.4314 37.8511 38.4314H13.9468V39.8806C13.9468 42.7419 12.5008 45.2329 10.3124 46.703H34.7532C38.5354 46.703 41.6192 43.6148 41.6192 39.8209V38.3717H38.1344Z" fill="#444444"/>
<path fill-rule="evenodd" clip-rule="evenodd" d="M35.8255 1.4C31.4756 1.4 27.9468 4.93421 27.9468 9.29702C27.9468 13.6598 31.4756 17.194 35.8255 17.194C40.1754 17.194 43.7043 13.6598 43.7043 9.29702C43.7043 4.93421 40.1754 1.4 35.8255 1.4ZM26.5468 9.29702C26.5468 4.16382 30.6996 0 35.8255 0C40.9514 0 45.1043 4.16382 45.1043 9.29702C45.1043 14.4302 40.9514 18.594 35.8255 18.594C30.6996 18.594 26.5468 14.4302 26.5468 9.29702Z" fill="#444444"/>
<path fill-rule="evenodd" clip-rule="evenodd" d="M35.8255 5.01489C36.2121 5.01489 36.5255 5.32829 36.5255 5.71489V12.8791C36.5255 13.2657 36.2121 13.5791 35.8255 13.5791C35.4389 13.5791 35.1255 13.2657 35.1255 12.8791V5.71489C35.1255 5.32829 35.4389 5.01489 35.8255 5.01489Z" fill="#444444"/>
<path fill-rule="evenodd" clip-rule="evenodd" d="M35.8228 5.0149C36.0096 5.01417 36.189 5.08818 36.321 5.22045L40.1934 9.10104C40.4664 9.3747 40.466 9.81792 40.1923 10.091C39.9186 10.3641 39.4754 10.3636 39.2023 10.0899L35.8294 6.70976L32.5121 10.0861C32.2411 10.3618 31.7979 10.3658 31.5222 10.0948C31.2464 9.82386 31.2425 9.38066 31.5134 9.1049L35.3262 5.2243C35.4571 5.09102 35.636 5.01562 35.8228 5.0149Z" fill="#444444"/>
<path d="M13.4851 20.6567H13.5447L15.7489 13.791H17.7745L14.6766 22.7462H12.2936L9.19574 13.791H11.2808L13.4851 20.6567Z" fill="#444444"/>
<path d="M18.9064 13.791H22.4213C24.4468 13.791 25.6383 15.0447 25.6383 16.8358C25.6383 18.6268 24.4468 19.8806 22.3617 19.8806H20.7532V22.8059H18.9064V13.8507V13.791ZM22.0638 18.3283C23.1362 18.3283 23.6723 17.7313 23.6723 16.7761C23.6723 15.8209 23.1362 15.2836 22.0638 15.2836H20.7532V18.3283H22.0638Z" fill="#444444"/>
<path fill-rule="evenodd" clip-rule="evenodd" d="M9.44891 28.0596C9.44891 27.673 9.76231 27.3596 10.1489 27.3596H22.4808C22.8674 27.3596 23.1808 27.673 23.1808 28.0596C23.1808 28.4462 22.8674 28.7596 22.4808 28.7596H10.1489C9.76231 28.7596 9.44891 28.4462 9.44891 28.0596Z" fill="#444444"/>
<path fill-rule="evenodd" clip-rule="evenodd" d="M9.44891 33.2537C9.44891 32.8671 9.76231 32.5537 10.1489 32.5537H26.234C26.6206 32.5537 26.934 32.8671 26.934 33.2537C26.934 33.6403 26.6206 33.9537 26.234 33.9537H10.1489C9.76231 33.9537 9.44891 33.6403 9.44891 33.2537Z" fill="#444444"/>
</g>
<defs>
<clipPath id="clip0_134_83">
<rect width="42" height="48" fill="white" transform="translate(3)"/>
</clipPath>
</defs>
</svg>
