<svg width="49" height="48" viewBox="0 0 49 48" fill="none" xmlns="http://www.w3.org/2000/svg">
<g clip-path="url(#clip0_135_268)">
<path fill-rule="evenodd" clip-rule="evenodd" d="M3.56244 6.02983C3.56244 5.64323 3.87584 5.32983 4.26244 5.32983H28.1667C28.5533 5.32983 28.8667 5.64323 28.8667 6.02983C28.8667 6.41643 28.5533 6.72983 28.1667 6.72983H4.96244V44.8358C4.96244 45.7618 5.66683 46.5368 6.6096 46.6421C10.2686 46.5111 13.2135 43.5398 13.2135 39.8209V37.6716C13.2135 37.285 13.5269 36.9716 13.9135 36.9716H37.8178V18C37.8178 17.6134 38.1312 17.3 38.5178 17.3C38.9044 17.3 39.2178 17.6134 39.2178 18V37.6716C39.2178 38.0582 38.9044 38.3716 38.5178 38.3716H14.6135V39.8209C14.6135 44.3257 11.029 47.9126 6.60647 48.043C6.5784 48.0438 6.5503 48.0429 6.52233 48.0404C4.86372 47.8893 3.56244 46.5237 3.56244 44.8358V6.02983Z" fill="#FF8400"/>
<path fill-rule="evenodd" clip-rule="evenodd" d="M38.2344 37.0314H13.9135C13.5269 37.0314 13.2135 37.3448 13.2135 37.7314V39.8806C13.2135 43.6146 10.2448 46.5949 6.56521 46.7033C6.1828 46.7146 5.88027 47.0308 5.88591 47.4133C5.89155 47.7959 6.20326 48.103 6.58584 48.103H35.4199C39.9781 48.103 43.6858 44.3852 43.6858 39.8209V37.6717C43.6858 37.2851 43.3724 36.9717 42.9858 36.9717H38.5177C38.4169 36.9717 38.3211 36.993 38.2344 37.0314ZM38.8011 38.3717C38.7144 38.4101 38.6186 38.4314 38.5177 38.4314H14.6135V39.8806C14.6135 42.7419 13.1674 45.2329 10.979 46.703H35.4199C39.2021 46.703 42.2858 43.6148 42.2858 39.8209V38.3717H38.8011Z" fill="#FF8400"/>
<path fill-rule="evenodd" clip-rule="evenodd" d="M36.4922 1.4C32.1423 1.4 28.6135 4.93421 28.6135 9.29702C28.6135 13.6598 32.1423 17.194 36.4922 17.194C40.8421 17.194 44.3709 13.6598 44.3709 9.29702C44.3709 4.93421 40.8421 1.4 36.4922 1.4ZM27.2135 9.29702C27.2135 4.16382 31.3663 0 36.4922 0C41.6181 0 45.7709 4.16382 45.7709 9.29702C45.7709 14.4302 41.6181 18.594 36.4922 18.594C31.3663 18.594 27.2135 14.4302 27.2135 9.29702Z" fill="#FF8400"/>
<path fill-rule="evenodd" clip-rule="evenodd" d="M36.4922 5.01489C36.8788 5.01489 37.1922 5.32829 37.1922 5.71489V12.8791C37.1922 13.2657 36.8788 13.5791 36.4922 13.5791C36.1056 13.5791 35.7922 13.2657 35.7922 12.8791V5.71489C35.7922 5.32829 36.1056 5.01489 36.4922 5.01489Z" fill="#FF8400"/>
<path fill-rule="evenodd" clip-rule="evenodd" d="M36.4895 5.0149C36.6764 5.01417 36.8557 5.08818 36.9877 5.22045L40.8601 9.10104C41.1331 9.3747 41.1327 9.81792 40.859 10.091C40.5854 10.3641 40.1421 10.3636 39.8691 10.0899L36.4961 6.70976L33.1788 10.0861C32.9078 10.3618 32.4646 10.3658 32.1889 10.0948C31.9131 9.82386 31.9092 9.38066 32.1801 9.1049L35.9929 5.2243C36.1239 5.09102 36.3027 5.01562 36.4895 5.0149Z" fill="#FF8400"/>
<path d="M14.1518 20.6567H14.2114L16.4156 13.791H18.4412L15.3433 22.7462H12.9603L9.86243 13.791H11.9475L14.1518 20.6567Z" fill="#FF8400"/>
<path d="M19.5731 13.791H23.088C25.1135 13.791 26.305 15.0447 26.305 16.8358C26.305 18.6268 25.1135 19.8806 23.0284 19.8806H21.4199V22.8059H19.5731V13.8507V13.791ZM22.7305 18.3283C23.8028 18.3283 24.339 17.7313 24.339 16.7761C24.339 15.8209 23.8028 15.2836 22.7305 15.2836H21.4199V18.3283H22.7305Z" fill="#FF8400"/>
<path fill-rule="evenodd" clip-rule="evenodd" d="M10.1156 28.0596C10.1156 27.673 10.429 27.3596 10.8156 27.3596H23.1475C23.5341 27.3596 23.8475 27.673 23.8475 28.0596C23.8475 28.4462 23.5341 28.7596 23.1475 28.7596H10.8156C10.429 28.7596 10.1156 28.4462 10.1156 28.0596Z" fill="#FF8400"/>
<path fill-rule="evenodd" clip-rule="evenodd" d="M10.1156 33.2537C10.1156 32.8671 10.429 32.5537 10.8156 32.5537H26.9007C27.2873 32.5537 27.6007 32.8671 27.6007 33.2537C27.6007 33.6403 27.2873 33.9537 26.9007 33.9537H10.8156C10.429 33.9537 10.1156 33.6403 10.1156 33.2537Z" fill="#FF8400"/>
</g>
<defs>
<clipPath id="clip0_135_268">
<rect width="42" height="48" fill="white" transform="translate(3.66669)"/>
</clipPath>
</defs>
</svg>
