<svg width="49" height="49" viewBox="0 0 49 49" fill="none" xmlns="http://www.w3.org/2000/svg">
<g clip-path="url(#clip0_134_125)">
<path fill-rule="evenodd" clip-rule="evenodd" d="M13.159 34.6299C13.159 34.2433 13.4724 33.9299 13.859 33.9299H27.9127C28.2993 33.9299 28.6127 34.2433 28.6127 34.6299C28.6127 35.0165 28.2993 35.3299 27.9127 35.3299H13.859C13.4724 35.3299 13.159 35.0165 13.159 34.6299Z" fill="#444444"/>
<path fill-rule="evenodd" clip-rule="evenodd" d="M13.159 39.7463C13.159 39.3597 13.4724 39.0463 13.859 39.0463H27.9127C28.2993 39.0463 28.6127 39.3597 28.6127 39.7463C28.6127 40.1329 28.2993 40.4463 27.9127 40.4463H13.859C13.4724 40.4463 13.159 40.1329 13.159 39.7463Z" fill="#444444"/>
<path fill-rule="evenodd" clip-rule="evenodd" d="M0.666748 0.7C0.666748 0.313401 0.980149 0 1.36675 0H40.4049C40.7915 0 41.1049 0.313401 41.1049 0.7V13.9623C41.1049 14.3489 40.7915 14.6623 40.4049 14.6623C40.0183 14.6623 39.7049 14.3489 39.7049 13.9623V1.4H2.06675V46.6536H39.7049V33.0815C39.7049 32.6949 40.0183 32.3815 40.4049 32.3815C40.7915 32.3815 41.1049 32.6949 41.1049 33.0815V47.3536C41.1049 47.7402 40.7915 48.0536 40.4049 48.0536H1.36675C0.980149 48.0536 0.666748 47.7402 0.666748 47.3536V0.7Z" fill="#444444"/>
<path fill-rule="evenodd" clip-rule="evenodd" d="M9.49277 18.8767C9.49277 12.6978 14.5613 7.60729 20.8519 7.60729C27.1396 7.60729 32.211 12.6276 32.211 18.8767C32.211 21.7565 31.1191 24.2714 29.3928 26.2686C29.2359 26.4501 28.9969 26.5386 28.7595 26.5031C28.5222 26.4675 28.3196 26.3129 28.2228 26.0934C27.3484 24.1117 25.6608 22.5012 23.54 21.759C23.289 21.6712 23.1094 21.4486 23.0766 21.1847C23.0438 20.9208 23.1634 20.661 23.3853 20.5144C24.6453 19.6814 25.4475 18.4056 25.4475 16.8571C25.4475 14.3544 23.3903 12.306 20.8519 12.306C18.3135 12.306 16.2563 14.3544 16.2563 16.8571C16.2563 18.392 17.1137 19.6779 18.3317 20.5233C18.5478 20.6733 18.6616 20.9319 18.6261 21.1926C18.5907 21.4533 18.4121 21.6721 18.1637 21.759C16.0535 22.4975 14.4219 24.1036 13.4734 26.11C13.3723 26.324 13.1698 26.4724 12.9352 26.5044C12.7007 26.5364 12.4658 26.4477 12.311 26.2686C10.5847 24.2714 9.49277 21.7565 9.49277 18.8767ZM20.8519 9.00729C15.3292 9.00729 10.8928 13.4764 10.8928 18.8767C10.8928 21.0123 11.5791 22.924 12.7305 24.5397C13.6589 23.0108 14.9745 21.7277 16.6065 20.9033C15.5767 19.8813 14.8563 18.4988 14.8563 16.8571C14.8563 13.5701 17.5515 10.906 20.8519 10.906C24.1523 10.906 26.8475 13.5701 26.8475 16.8571C26.8475 18.4916 26.1735 19.8803 25.1166 20.9111C26.7397 21.7293 28.0784 22.999 28.9851 24.5231C30.1294 22.9109 30.811 21.005 30.811 18.8767C30.811 13.4119 26.3775 9.00729 20.8519 9.00729Z" fill="#444444"/>
<path fill-rule="evenodd" clip-rule="evenodd" d="M14.9242 16.9244C14.9242 13.6374 17.6194 10.9734 20.9198 10.9734C24.2202 10.9734 26.9154 13.6374 26.9154 16.9244C26.9154 18.5661 26.195 19.9486 25.1652 20.9706C27.1326 21.9645 28.6402 23.6249 29.564 25.579C29.6837 25.8323 29.6408 26.1327 29.455 26.3424C27.3617 28.7044 24.3234 30.2135 20.9198 30.2135C17.5161 30.2135 14.4779 28.7044 12.3846 26.3424C12.2031 26.1376 12.1576 25.8459 12.268 25.5956C13.1367 23.6268 14.6868 21.9706 16.6551 20.9784C15.5982 19.9476 14.9242 18.5589 14.9242 16.9244ZM20.9198 12.3734C18.3814 12.3734 16.3242 14.4218 16.3242 16.9244C16.3242 18.4729 17.1264 19.7488 18.3864 20.5817C18.6083 20.7284 18.7279 20.9881 18.6951 21.252C18.6622 21.516 18.4827 21.7385 18.2316 21.8263C16.2592 22.5166 14.6615 23.958 13.7442 25.7504C15.5711 27.6362 18.1054 28.8135 20.9198 28.8135C23.73 28.8135 26.2611 27.6396 28.0873 25.7587C27.1171 23.9486 25.5693 22.5127 23.6079 21.8263C23.3596 21.7394 23.181 21.5206 23.1455 21.2599C23.1101 20.9992 23.2239 20.7406 23.44 20.5906C24.658 19.7452 25.5154 18.4593 25.5154 16.9244C25.5154 14.4218 23.4582 12.3734 20.9198 12.3734Z" fill="#444444"/>
<path fill-rule="evenodd" clip-rule="evenodd" d="M39.3721 13.648C39.545 13.3039 39.9635 13.164 40.3085 13.3351L48.3198 17.3071C48.4867 17.3898 48.6138 17.5357 48.6728 17.7124C48.7319 17.8891 48.718 18.082 48.6344 18.2485L39.2652 36.8964C39.1889 37.0483 39.0601 37.1672 38.9026 37.231L32.5886 39.7892C32.4018 39.8648 32.1914 39.8563 32.0113 39.7658C31.8313 39.6753 31.6989 39.5116 31.6482 39.3165L29.9509 32.7863C29.9082 32.622 29.9267 32.4477 30.0029 32.296L39.3721 13.648ZM40.3105 14.8987L31.3722 32.6891L32.8025 38.192L38.1326 36.0324L47.0675 18.2488L40.3105 14.8987Z" fill="#444444"/>
</g>
<defs>
<clipPath id="clip0_134_125">
<rect width="48.0421" height="48.0536" fill="white" transform="translate(0.666748)"/>
</clipPath>
</defs>
</svg>
