<svg width="49" height="48" viewBox="0 0 49 48" fill="none" xmlns="http://www.w3.org/2000/svg">
<g clip-path="url(#clip0_135_266)">
<path fill-rule="evenodd" clip-rule="evenodd" d="M3.56244 6.02983C3.56244 5.64323 3.87584 5.32983 4.26244 5.32983H29.009C27.7892 10.2327 28.3334 15.5 33.8334 17C35.5633 17.9952 37.3334 17.7814 39.2178 17.5V37.6716C39.2178 38.0582 38.9044 38.3716 38.5178 38.3716H14.6135V39.8209C14.6135 44.3257 11.029 47.9126 6.60647 48.043C6.5784 48.0438 6.5503 48.0429 6.52233 48.0404C4.86372 47.8893 3.56244 46.5237 3.56244 44.8358V6.02983ZM4.96244 6.72983V44.8358C4.96244 45.7618 5.66683 46.5368 6.6096 46.6421C10.2686 46.5111 13.2135 43.5398 13.2135 39.8209V37.6716C13.2135 37.285 13.5269 36.9716 13.9135 36.9716H37.8178C37.8178 29.3479 37.8178 23.8863 37.8178 17.7953C35.9212 17.689 26.824 18.4464 28.192 6.72983H4.96244Z" fill="#FF8400"/>
<path fill-rule="evenodd" clip-rule="evenodd" d="M38.2344 37.0314H13.9135C13.5269 37.0314 13.2135 37.3448 13.2135 37.7314V39.8806C13.2135 43.6146 10.2448 46.5949 6.56521 46.7033C6.1828 46.7146 5.88027 47.0308 5.88591 47.4133C5.89155 47.7959 6.20326 48.103 6.58584 48.103H35.4199C39.9781 48.103 43.6858 44.3852 43.6858 39.8209V37.6717C43.6858 37.2851 43.3724 36.9717 42.9858 36.9717H38.5177C38.4169 36.9717 38.3211 36.993 38.2344 37.0314ZM38.8011 38.3717C38.7144 38.4101 38.6186 38.4314 38.5177 38.4314H14.6135V39.8806C14.6135 42.7419 13.1674 45.2329 10.979 46.703H35.4199C39.2021 46.703 42.2858 43.6148 42.2858 39.8209V38.3717H38.8011Z" fill="#FF8400"/>
<path fill-rule="evenodd" clip-rule="evenodd" d="M36.4922 1.4C32.1423 1.4 28.6135 4.93421 28.6135 9.29702C28.6135 13.6598 32.1423 17.194 36.4922 17.194C40.8421 17.194 44.3709 13.6598 44.3709 9.29702C44.3709 4.93421 40.8421 1.4 36.4922 1.4ZM27.2135 9.29702C27.2135 4.16382 31.3663 0 36.4922 0C41.6181 0 45.7709 4.16382 45.7709 9.29702C45.7709 14.4302 41.6181 18.594 36.4922 18.594C31.3663 18.594 27.2135 14.4302 27.2135 9.29702Z" fill="#FF8400"/>
<path fill-rule="evenodd" clip-rule="evenodd" d="M36.4922 5.01489C36.8788 5.01489 37.1922 5.32829 37.1922 5.71489V12.8791C37.1922 13.2657 36.8788 13.5791 36.4922 13.5791C36.1056 13.5791 35.7922 13.2657 35.7922 12.8791V5.71489C35.7922 5.32829 36.1056 5.01489 36.4922 5.01489Z" fill="#FF8400"/>
<path fill-rule="evenodd" clip-rule="evenodd" d="M40.8628 8.5665C41.1344 8.84169 41.1314 9.28489 40.8562 9.55643L36.9839 13.3773C36.7098 13.6478 36.2687 13.6461 35.9967 13.3735L32.184 9.5526C31.9109 9.27894 31.9114 8.83573 32.185 8.56265C32.4587 8.28958 32.9019 8.29005 33.175 8.56371L36.4961 11.8919L39.8729 8.55988C40.1481 8.28835 40.5913 8.29131 40.8628 8.5665Z" fill="#FF8400"/>
<path d="M14.1518 20.6569H14.2114L16.4156 13.7913H18.4412L15.3433 22.7465H12.9603L9.86243 13.7913H11.9475L14.1518 20.6569Z" fill="#FF8400"/>
<path d="M23.088 15.3434C21.7178 15.3434 20.7646 16.418 20.7646 18.3285C20.7646 20.2389 21.7178 21.3135 23.088 21.3135C24.1007 21.3135 24.8752 20.7165 25.0539 19.7613H26.9603C26.722 21.4329 25.3518 22.9255 23.088 22.9255C20.705 22.9255 18.9178 21.2538 18.9178 18.3285C18.9178 15.4031 20.705 13.7314 23.088 13.7314C25.1731 13.7314 26.722 14.9255 26.9603 16.9553H25.0539C24.9348 15.9404 24.1603 15.3434 23.088 15.3434Z" fill="#FF8400"/>
<path fill-rule="evenodd" clip-rule="evenodd" d="M10.1156 28.0596C10.1156 27.673 10.429 27.3596 10.8156 27.3596H23.1475C23.5341 27.3596 23.8475 27.673 23.8475 28.0596C23.8475 28.4462 23.5341 28.7596 23.1475 28.7596H10.8156C10.429 28.7596 10.1156 28.4462 10.1156 28.0596Z" fill="#FF8400"/>
<path fill-rule="evenodd" clip-rule="evenodd" d="M10.1156 33.2537C10.1156 32.8671 10.429 32.5537 10.8156 32.5537H26.9007C27.2873 32.5537 27.6007 32.8671 27.6007 33.2537C27.6007 33.6403 27.2873 33.9537 26.9007 33.9537H10.8156C10.429 33.9537 10.1156 33.6403 10.1156 33.2537Z" fill="#FF8400"/>
</g>
<defs>
<clipPath id="clip0_135_266">
<rect width="42" height="48" fill="white" transform="translate(3.66669)"/>
</clipPath>
</defs>
</svg>
