<svg width="49" height="48" viewBox="0 0 49 48" fill="none" xmlns="http://www.w3.org/2000/svg">
<g clip-path="url(#clip0_134_53)">
<path fill-rule="evenodd" clip-rule="evenodd" d="M3.22906 6.02983C3.22906 5.64323 3.54247 5.32983 3.92906 5.32983H28.6756C27.4558 10.2327 28 15.5 33.5 17C35.2299 17.9952 37 17.7814 38.8844 17.5V37.6716C38.8844 38.0582 38.571 38.3716 38.1844 38.3716H14.2801V39.8209C14.2801 44.3257 10.6956 47.9126 6.27309 48.043C6.24502 48.0438 6.21693 48.0429 6.18896 48.0404C4.53034 47.8893 3.22906 46.5237 3.22906 44.8358V6.02983ZM4.62906 6.72983V44.8358C4.62906 45.7618 5.33345 46.5368 6.27623 46.6421C9.93527 46.5111 12.8801 43.5398 12.8801 39.8209V37.6716C12.8801 37.285 13.1935 36.9716 13.5801 36.9716H37.4844C37.4844 29.3479 37.4844 23.8863 37.4844 17.7953C35.5878 17.689 26.4906 18.4464 27.8586 6.72983H4.62906Z" fill="#444444"/>
<path fill-rule="evenodd" clip-rule="evenodd" d="M37.9011 37.0314H13.5802C13.1936 37.0314 12.8802 37.3448 12.8802 37.7314V39.8806C12.8802 43.6146 9.91145 46.5949 6.23187 46.7033C5.84946 46.7146 5.54693 47.0308 5.55257 47.4133C5.5582 47.7959 5.86991 48.103 6.25249 48.103H35.0865C39.6447 48.103 43.3525 44.3852 43.3525 39.8209V37.6717C43.3525 37.2851 43.0391 36.9717 42.6525 36.9717H38.1844C38.0836 36.9717 37.9877 36.993 37.9011 37.0314ZM38.4677 38.3717C38.3811 38.4101 38.2852 38.4314 38.1844 38.4314H14.2802V39.8806C14.2802 42.7419 12.8341 45.2329 10.6457 46.703H35.0865C38.8687 46.703 41.9525 43.6148 41.9525 39.8209V38.3717H38.4677Z" fill="#444444"/>
<path fill-rule="evenodd" clip-rule="evenodd" d="M36.1588 1.4C31.809 1.4 28.2801 4.93421 28.2801 9.29702C28.2801 13.6598 31.809 17.194 36.1588 17.194C40.5087 17.194 44.0376 13.6598 44.0376 9.29702C44.0376 4.93421 40.5087 1.4 36.1588 1.4ZM26.8801 9.29702C26.8801 4.16382 31.0329 0 36.1588 0C41.2848 0 45.4376 4.16382 45.4376 9.29702C45.4376 14.4302 41.2848 18.594 36.1588 18.594C31.0329 18.594 26.8801 14.4302 26.8801 9.29702Z" fill="#444444"/>
<path fill-rule="evenodd" clip-rule="evenodd" d="M36.1588 5.01489C36.5454 5.01489 36.8588 5.32829 36.8588 5.71489V12.8791C36.8588 13.2657 36.5454 13.5791 36.1588 13.5791C35.7722 13.5791 35.4588 13.2657 35.4588 12.8791V5.71489C35.4588 5.32829 35.7722 5.01489 36.1588 5.01489Z" fill="#444444"/>
<path fill-rule="evenodd" clip-rule="evenodd" d="M40.5294 8.5665C40.801 8.84169 40.798 9.28489 40.5228 9.55643L36.6505 13.3773C36.3764 13.6478 35.9353 13.6461 35.6633 13.3735L31.8506 9.5526C31.5775 9.27894 31.578 8.83573 31.8516 8.56265C32.1253 8.28958 32.5685 8.29005 32.8416 8.56371L36.1627 11.8919L39.5395 8.55988C39.8147 8.28835 40.2579 8.29131 40.5294 8.5665Z" fill="#444444"/>
<path d="M13.8184 20.6569H13.878L16.0822 13.7913H18.1078L15.0099 22.7465H12.6269L9.52905 13.7913H11.6142L13.8184 20.6569Z" fill="#444444"/>
<path d="M22.7546 15.3434C21.3844 15.3434 20.4312 16.418 20.4312 18.3285C20.4312 20.2389 21.3844 21.3135 22.7546 21.3135C23.7673 21.3135 24.5418 20.7165 24.7205 19.7613H26.6269C26.3886 21.4329 25.0184 22.9255 22.7546 22.9255C20.3716 22.9255 18.5844 21.2538 18.5844 18.3285C18.5844 15.4031 20.3716 13.7314 22.7546 13.7314C24.8397 13.7314 26.3886 14.9255 26.6269 16.9553H24.7205C24.6014 15.9404 23.8269 15.3434 22.7546 15.3434Z" fill="#444444"/>
<path fill-rule="evenodd" clip-rule="evenodd" d="M9.78223 28.0596C9.78223 27.673 10.0956 27.3596 10.4822 27.3596H22.8141C23.2007 27.3596 23.5141 27.673 23.5141 28.0596C23.5141 28.4462 23.2007 28.7596 22.8141 28.7596H10.4822C10.0956 28.7596 9.78223 28.4462 9.78223 28.0596Z" fill="#444444"/>
<path fill-rule="evenodd" clip-rule="evenodd" d="M9.78223 33.2537C9.78223 32.8671 10.0956 32.5537 10.4822 32.5537H26.5673C26.9539 32.5537 27.2673 32.8671 27.2673 33.2537C27.2673 33.6403 26.9539 33.9537 26.5673 33.9537H10.4822C10.0956 33.9537 9.78223 33.6403 9.78223 33.2537Z" fill="#444444"/>
</g>
<defs>
<clipPath id="clip0_134_53">
<rect width="42" height="48" fill="white" transform="translate(3.33331)"/>
</clipPath>
</defs>
</svg>
